<svg width="91" height="88" viewBox="0 0 91 88" fill="none" xmlns="http://www.w3.org/2000/svg">
<path d="M27.9275 41.1231C34.1123 39.9573 40.4693 35.405 41.9446 29.2867C44.8346 17.3008 51.795 1.0792 68.099 4.45193C93.4257 9.69111 103.434 41.2088 68.099 72.6478C32.7638 104.087 -4.49144 78.2541 7.18547 56.9521C13.0123 46.3224 21.193 42.3927 27.9275 41.1231Z" fill="#222430"/>
<path d="M25.5352 50.1284C28.0105 50.7674 46.6594 45.5466 51.6368 27.8016" stroke="white" stroke-width="4" stroke-linecap="round"/>
<ellipse cx="8.34071" cy="25.4087" rx="8.34071" ry="8.40866" fill="black"/>
<ellipse cx="8.34071" cy="25.4087" rx="8.34071" ry="8.40866" fill="black"/>
<ellipse cx="8.34071" cy="25.4087" rx="8.34071" ry="8.40866" fill="#222430"/>
<ellipse cx="28.3407" cy="8.40866" rx="8.34071" ry="8.40866" fill="black"/>
<ellipse cx="28.3407" cy="8.40866" rx="8.34071" ry="8.40866" fill="black"/>
<ellipse cx="28.3407" cy="8.40866" rx="8.34071" ry="8.40866" fill="#222430"/>
</svg>
